<?xml version="1.0" encoding="utf-8"?>
<!-- Generator: Adobe Illustrator 14.0.0, SVG Export Plug-In . SVG Version: 6.00 Build 43363)  -->
<!DOCTYPE svg PUBLIC "-//W3C//DTD SVG 1.1//EN" "http://www.w3.org/Graphics/SVG/1.1/DTD/svg11.dtd">
<svg version="1.1" id="Layer_1" xmlns="http://www.w3.org/2000/svg" xmlns:xlink="http://www.w3.org/1999/xlink" x="0px" y="0px"
	 width="51px" height="51px" viewBox="-331.5 1162.5 51 51" enable-background="new -331.5 1162.5 51 51" xml:space="preserve">
<g id="mon">
	<g>
		<g>
			<defs>
				<rect id="SVGID_1_" x="-331.5" y="1162.5" width="51" height="51"/>
			</defs>
			<clipPath id="SVGID_2_">
				<use xlink:href="#SVGID_1_"  overflow="visible"/>
			</clipPath>
			<path clip-path="url(#SVGID_2_)" fill="none" stroke="#121211" stroke-width="6" d="M-281,1207.908
				c0,2.812-2.221,5.092-4.959,5.092h-40.083c-2.738,0-4.958-2.279-4.958-5.092v-39.816c0-2.812,2.22-5.092,4.958-5.092h40.083
				c2.738,0,4.959,2.28,4.959,5.092V1207.908L-281,1207.908z"/>
		</g>
	</g>
	<path fill="#121211" d="M-306,1193.4c-2.982,0-5.4-2.418-5.4-5.4s2.418-5.4,5.4-5.4c2.982,0,5.4,2.418,5.4,5.4
		S-303.018,1193.4-306,1193.4L-306,1193.4z M-306,1168.201c-10.935,0-19.799,8.863-19.799,19.799s8.864,19.799,19.799,19.799
		c10.935,0,19.799-8.863,19.799-19.799S-295.065,1168.201-306,1168.201L-306,1168.201z"/>
</g>
</svg>
