<?xml version="1.0" encoding="utf-8"?>
<!-- Generator: Adobe Illustrator 17.1.0, SVG Export Plug-In . SVG Version: 6.00 Build 0)  -->
<!DOCTYPE svg PUBLIC "-//W3C//DTD SVG 1.1//EN" "http://www.w3.org/Graphics/SVG/1.1/DTD/svg11.dtd">
<svg version="1.1" id="Layer_1" xmlns="http://www.w3.org/2000/svg" xmlns:xlink="http://www.w3.org/1999/xlink" x="0px" y="0px"
	width="300px" height="250px" viewBox="0 0 300 250" enable-background="new 0 0 300 250" xml:space="preserve">
<rect y="110" fill="#137CC1" width="300" height="140"/>
<circle fill="#137CC1" cx="150" cy="112.25" r="22.25"/>
<polygon fill="#FFFFFF" points="149.861,100.322 151.627,106.151 157.717,106.03 152.718,109.511 154.716,115.265 149.861,111.587 
	145.005,115.265 147.003,109.511 142.004,106.03 148.094,106.151 "/>
<g>
	<path fill="#FFFFFF" d="M74.333,141.953v-14.676h5.897c2.948,0,4.599,2.024,4.599,4.422c0,2.398-1.694,4.423-4.599,4.423h-4.071
		v5.831H74.333z M82.936,131.699c0-1.649-1.188-2.794-2.926-2.794h-3.851v5.589h3.851C81.748,134.494,82.936,133.35,82.936,131.699z
		"/>
	<path fill="#FFFFFF" d="M87.18,141.953v-10.628h1.65v1.717c0.858-1.122,2.09-1.937,3.542-1.937v1.694
		c-0.198-0.044-0.396-0.066-0.66-0.066c-1.012,0-2.398,0.837-2.883,1.694v7.525H87.18z"/>
	<path fill="#FFFFFF" d="M93.824,136.628c0-3.08,2.2-5.566,5.237-5.566c3.212,0,5.104,2.509,5.104,5.699v0.418h-8.603
		c0.132,2.002,1.54,3.674,3.829,3.674c1.21,0,2.442-0.483,3.278-1.342l0.792,1.078c-1.056,1.057-2.486,1.628-4.225,1.628
		C96.09,142.217,93.824,139.951,93.824,136.628z M99.039,132.426c-2.267,0-3.389,1.914-3.477,3.543h6.975
		C102.515,134.384,101.459,132.426,99.039,132.426z"/>
	<path fill="#FFFFFF" d="M119.653,141.953v-7.217c0-1.343-0.594-2.2-1.958-2.2c-1.101,0-2.267,0.792-2.816,1.628v7.789h-1.65v-7.217
		c0-1.343-0.572-2.2-1.958-2.2c-1.078,0-2.222,0.792-2.794,1.649v7.768h-1.65v-10.628h1.65v1.541
		c0.44-0.683,1.871-1.805,3.433-1.805c1.628,0,2.552,0.88,2.86,1.98c0.594-0.969,2.024-1.98,3.564-1.98
		c1.937,0,2.971,1.078,2.971,3.213v7.679H119.653z"/>
	<path fill="#FFFFFF" d="M124.316,128.707c0-0.616,0.506-1.122,1.1-1.122c0.616,0,1.122,0.506,1.122,1.122s-0.506,1.101-1.122,1.101
		C124.822,129.808,124.316,129.323,124.316,128.707z M124.602,141.953v-10.628h1.65v10.628H124.602z"/>
	<path fill="#FFFFFF" d="M136.725,141.953v-1.496c-0.814,0.924-2.2,1.76-3.785,1.76c-2.222,0-3.388-1.078-3.388-3.388v-7.504h1.65
		v6.997c0,1.871,0.946,2.421,2.376,2.421c1.298,0,2.53-0.748,3.146-1.606v-7.812h1.65v10.628H136.725z"/>
	<path fill="#FFFFFF" d="M154.501,141.953v-7.217c0-1.343-0.595-2.2-1.959-2.2c-1.1,0-2.265,0.792-2.815,1.628v7.789h-1.65v-7.217
		c0-1.343-0.572-2.2-1.958-2.2c-1.078,0-2.222,0.792-2.794,1.649v7.768h-1.65v-10.628h1.65v1.541
		c0.44-0.683,1.871-1.805,3.433-1.805c1.628,0,2.552,0.88,2.86,1.98c0.594-0.969,2.023-1.98,3.564-1.98
		c1.936,0,2.97,1.078,2.97,3.213v7.679H154.501z"/>
	<path fill="#FFFFFF" d="M165.19,141.953v-14.676h5.018c4.555,0,7.524,3.19,7.524,7.349c0,4.181-2.97,7.327-7.524,7.327H165.19z
		 M175.841,134.626c0-3.168-2.003-5.721-5.633-5.721h-3.19v11.42h3.19C173.772,140.325,175.841,137.772,175.841,134.626z"/>
	<path fill="#FFFFFF" d="M180.524,141.953v-10.628h1.65v1.717c0.857-1.122,2.09-1.937,3.542-1.937v1.694
		c-0.198-0.044-0.396-0.066-0.66-0.066c-1.012,0-2.398,0.837-2.882,1.694v7.525H180.524z"/>
	<path fill="#FFFFFF" d="M194.957,141.953v-1.496c-0.814,0.924-2.2,1.76-3.784,1.76c-2.223,0-3.389-1.078-3.389-3.388v-7.504h1.65
		v6.997c0,1.871,0.946,2.421,2.376,2.421c1.298,0,2.53-0.748,3.146-1.606v-7.812h1.65v10.628H194.957z"/>
	<path fill="#FFFFFF" d="M201.557,140.347v5.655h-1.65v-14.677h1.65v1.585c0.77-1.078,2.09-1.849,3.586-1.849
		c2.795,0,4.731,2.112,4.731,5.566c0,3.433-1.937,5.589-4.731,5.589C203.69,142.217,202.414,141.535,201.557,140.347z
		 M208.136,136.628c0-2.354-1.276-4.092-3.411-4.092c-1.298,0-2.597,0.77-3.168,1.694v4.796c0.571,0.925,1.87,1.717,3.168,1.717
		C206.859,140.743,208.136,138.982,208.136,136.628z"/>
	<path fill="#FFFFFF" d="M219.135,141.953v-1.21c-0.88,0.968-2.09,1.474-3.521,1.474c-1.804,0-3.719-1.21-3.719-3.521
		c0-2.376,1.915-3.498,3.719-3.498c1.452,0,2.663,0.462,3.521,1.452v-1.914c0-1.431-1.144-2.244-2.685-2.244
		c-1.275,0-2.31,0.462-3.256,1.474l-0.771-1.144c1.145-1.188,2.509-1.761,4.247-1.761c2.244,0,4.114,1.012,4.114,3.587v7.305
		H219.135z M219.135,139.709v-2.003c-0.638-0.88-1.76-1.319-2.926-1.319c-1.541,0-2.619,0.968-2.619,2.332
		c0,1.342,1.078,2.311,2.619,2.311C217.375,141.029,218.497,140.589,219.135,139.709z"/>
	<path fill="#FFFFFF" d="M224.084,141.953v-14.676h1.65v14.676H224.084z"/>
	<path fill="#FFFFFF" d="M80.922,167.441v-13.048h-4.643v-1.628h11.134v1.628h-4.665v13.048H80.922z"/>
	<path fill="#FFFFFF" d="M87.896,167.441v-10.628h1.65v1.717c0.858-1.122,2.09-1.937,3.542-1.937v1.694
		c-0.198-0.044-0.396-0.066-0.66-0.066c-1.012,0-2.398,0.837-2.883,1.694v7.525H87.896z"/>
	<path fill="#FFFFFF" d="M101.8,167.441v-1.21c-0.88,0.968-2.09,1.474-3.521,1.474c-1.805,0-3.719-1.21-3.719-3.521
		c0-2.376,1.914-3.498,3.719-3.498c1.452,0,2.662,0.462,3.521,1.452v-1.914c0-1.431-1.145-2.244-2.685-2.244
		c-1.276,0-2.311,0.462-3.256,1.474l-0.77-1.144c1.144-1.188,2.508-1.761,4.247-1.761c2.244,0,4.114,1.012,4.114,3.587v7.305H101.8z
		 M101.8,165.197v-2.003c-0.638-0.88-1.76-1.319-2.927-1.319c-1.54,0-2.618,0.968-2.618,2.332c0,1.342,1.078,2.311,2.618,2.311
		C100.04,166.518,101.162,166.077,101.8,165.197z"/>
	<path fill="#FFFFFF" d="M106.463,154.195c0-0.616,0.506-1.122,1.1-1.122c0.616,0,1.122,0.506,1.122,1.122s-0.506,1.101-1.122,1.101
		C106.969,155.296,106.463,154.812,106.463,154.195z M106.749,167.441v-10.628h1.65v10.628H106.749z"/>
	<path fill="#FFFFFF" d="M118.872,167.441v-6.953c0-1.87-0.946-2.464-2.376-2.464c-1.298,0-2.53,0.792-3.146,1.649v7.768h-1.65
		v-10.628h1.65v1.541c0.749-0.881,2.201-1.805,3.785-1.805c2.222,0,3.389,1.122,3.389,3.433v7.459H118.872z"/>
	<path fill="#FFFFFF" d="M123.535,154.195c0-0.616,0.506-1.122,1.1-1.122c0.616,0,1.122,0.506,1.122,1.122s-0.506,1.101-1.122,1.101
		C124.041,155.296,123.535,154.812,123.535,154.195z M123.821,167.441v-10.628h1.65v10.628H123.821z"/>
	<path fill="#FFFFFF" d="M135.943,167.441v-6.953c0-1.87-0.946-2.464-2.376-2.464c-1.298,0-2.53,0.792-3.146,1.649v7.768h-1.65
		v-10.628h1.65v1.541c0.748-0.881,2.201-1.805,3.785-1.805c2.222,0,3.389,1.122,3.389,3.433v7.459H135.943z"/>
	<path fill="#FFFFFF" d="M140.871,170.17l0.836-1.232c0.88,1.057,1.937,1.452,3.455,1.452c1.76,0,3.411-0.858,3.411-3.19v-1.518
		c-0.771,1.078-2.068,1.892-3.565,1.892c-2.772,0-4.73-2.068-4.73-5.501c0-3.41,1.936-5.522,4.73-5.522
		c1.43,0,2.707,0.704,3.565,1.87v-1.606h1.65v10.32c0,3.521-2.465,4.62-5.061,4.62C143.357,171.754,142.125,171.402,140.871,170.17z
		 M148.572,164.383v-4.643c-0.572-0.924-1.849-1.716-3.169-1.716c-2.134,0-3.41,1.694-3.41,4.048c0,2.333,1.276,4.049,3.41,4.049
		C146.723,166.121,148,165.307,148.572,164.383z"/>
	<path fill="#FFFFFF" d="M158.667,160.114c0-4.335,2.927-7.591,7.283-7.591c4.335,0,7.283,3.256,7.283,7.591
		s-2.948,7.591-7.283,7.591C161.594,167.705,158.667,164.449,158.667,160.114z M171.341,160.114c0-3.433-2.112-5.963-5.391-5.963
		c-3.301,0-5.391,2.53-5.391,5.963c0,3.41,2.09,5.963,5.391,5.963C169.229,166.077,171.341,163.524,171.341,160.114z"/>
	<path fill="#FFFFFF" d="M183.198,167.441v-6.953c0-1.87-0.946-2.464-2.376-2.464c-1.299,0-2.53,0.792-3.146,1.649v7.768h-1.65
		v-10.628h1.65v1.541c0.748-0.881,2.2-1.805,3.784-1.805c2.223,0,3.389,1.122,3.389,3.433v7.459H183.198z"/>
	<path fill="#FFFFFF" d="M188.147,167.441v-14.676h1.65v14.676H188.147z"/>
	<path fill="#FFFFFF" d="M192.812,154.195c0-0.616,0.506-1.122,1.1-1.122c0.616,0,1.123,0.506,1.123,1.122s-0.507,1.101-1.123,1.101
		C193.317,155.296,192.812,154.812,192.812,154.195z M193.098,167.441v-10.628h1.65v10.628H193.098z"/>
	<path fill="#FFFFFF" d="M205.22,167.441v-6.953c0-1.87-0.946-2.464-2.376-2.464c-1.299,0-2.53,0.792-3.146,1.649v7.768h-1.65
		v-10.628h1.65v1.541c0.748-0.881,2.2-1.805,3.784-1.805c2.223,0,3.389,1.122,3.389,3.433v7.459H205.22z"/>
	<path fill="#FFFFFF" d="M209.553,162.116c0-3.08,2.2-5.566,5.236-5.566c3.213,0,5.105,2.509,5.105,5.699v0.418h-8.604
		c0.132,2.002,1.54,3.674,3.828,3.674c1.211,0,2.442-0.483,3.279-1.342l0.792,1.078c-1.057,1.057-2.486,1.628-4.225,1.628
		C211.819,167.705,209.553,165.439,209.553,162.116z M214.768,157.914c-2.267,0-3.389,1.914-3.477,3.543h6.975
		C218.244,159.872,217.188,157.914,214.768,157.914z"/>
</g>
<path fill="#1067A2" d="M260,227.566c0,3.001-2.433,5.434-5.434,5.434H45.434c-3.001,0-5.434-2.433-5.434-5.434v-37.132
	c0-3.001,2.433-5.434,5.434-5.434h209.132c3.001,0,5.434,2.433,5.434,5.434V227.566z"/>
<g>
	<path fill="#FFFFFF" d="M88.234,211.184l1.472-2.065c0.899,0.938,2.294,1.721,4.053,1.721c1.492,0,2.218-0.688,2.218-1.415
		c0-2.256-7.342-0.707-7.342-5.506c0-2.122,1.835-3.881,4.837-3.881c2.027,0,3.709,0.611,4.971,1.777l-1.511,1.988
		c-1.032-0.955-2.409-1.396-3.709-1.396c-1.166,0-1.816,0.517-1.816,1.281c0,2.026,7.323,0.669,7.323,5.43
		c0,2.333-1.664,4.092-5.105,4.092C91.179,213.21,89.42,212.388,88.234,211.184z"/>
	<path fill="#FFFFFF" d="M100.264,201.299c0-0.804,0.669-1.435,1.453-1.435c0.803,0,1.453,0.631,1.453,1.435
		c0,0.803-0.65,1.453-1.453,1.453C100.933,202.752,100.264,202.102,100.264,201.299z M100.513,212.98v-9.234h2.428v9.234H100.513z"
		/>
	<path fill="#FFFFFF" d="M105.16,215.352l1.09-1.76c0.746,0.822,1.721,1.147,2.887,1.147c1.166,0,2.543-0.516,2.543-2.332v-0.938
		c-0.727,0.918-1.721,1.453-2.849,1.453c-2.313,0-4.072-1.625-4.072-4.703c0-3.021,1.74-4.703,4.072-4.703
		c1.109,0,2.103,0.478,2.849,1.415v-1.186h2.447v8.604c0,3.518-2.715,4.378-4.99,4.378
		C107.55,216.728,106.327,216.364,105.16,215.352z M111.68,209.711v-2.982c-0.402-0.612-1.281-1.052-2.084-1.052
		c-1.377,0-2.333,0.956-2.333,2.543s0.956,2.543,2.333,2.543C110.399,210.763,111.278,210.304,111.68,209.711z"/>
	<path fill="#FFFFFF" d="M122.772,212.98v-5.583c0-1.281-0.669-1.721-1.702-1.721c-0.956,0-1.702,0.535-2.103,1.09v6.214h-2.428
		v-9.234h2.428v1.204c0.593-0.707,1.721-1.434,3.231-1.434c2.027,0,3.002,1.147,3.002,2.944v6.52H122.772z"/>
	<path fill="#FFFFFF" d="M138.742,212.98v-1.166c-0.631,0.707-1.74,1.396-3.25,1.396c-2.026,0-2.982-1.109-2.982-2.906v-6.558h2.428
		v5.602c0,1.281,0.669,1.702,1.702,1.702c0.937,0,1.682-0.517,2.103-1.052v-6.252h2.428v9.234H138.742z"/>
	<path fill="#FFFFFF" d="M146.011,211.795v4.703h-2.428v-12.752h2.428v1.166c0.707-0.898,1.721-1.396,2.849-1.396
		c2.372,0,4.092,1.759,4.092,4.837s-1.721,4.856-4.092,4.856C147.77,213.21,146.757,212.751,146.011,211.795z M150.427,208.354
		c0-1.587-0.937-2.677-2.332-2.677c-0.784,0-1.683,0.459-2.084,1.052v3.27c0.401,0.573,1.3,1.052,2.084,1.052
		C149.491,211.05,150.427,209.96,150.427,208.354z"/>
	<path fill="#FFFFFF" d="M160.107,210.687v-4.818h-1.529v-2.122h1.529v-2.524h2.447v2.524h1.874v2.122h-1.874v4.168
		c0,0.573,0.306,1.014,0.841,1.014c0.363,0,0.708-0.134,0.842-0.268l0.516,1.835c-0.363,0.325-1.013,0.593-2.026,0.593
		C161.025,213.21,160.107,212.33,160.107,210.687z"/>
	<path fill="#FFFFFF" d="M165.501,208.354c0-2.619,1.836-4.837,4.876-4.837c3.059,0,4.895,2.218,4.895,4.837
		c0,2.639-1.836,4.856-4.895,4.856C167.337,213.21,165.501,210.992,165.501,208.354z M172.748,208.354
		c0-1.434-0.86-2.677-2.371-2.677s-2.352,1.243-2.352,2.677c0,1.453,0.841,2.696,2.352,2.696S172.748,209.807,172.748,208.354z"/>
	<path fill="#FFFFFF" d="M183.419,212.98v-1.186c-0.727,0.918-1.739,1.415-2.849,1.415c-2.332,0-4.091-1.759-4.091-4.837
		c0-3.021,1.739-4.856,4.091-4.856c1.09,0,2.122,0.478,2.849,1.415v-4.704h2.447v12.753H183.419z M183.419,209.998v-3.27
		c-0.401-0.612-1.28-1.052-2.103-1.052c-1.377,0-2.333,1.09-2.333,2.696c0,1.587,0.956,2.677,2.333,2.677
		C182.139,211.05,183.018,210.609,183.419,209.998z"/>
	<path fill="#FFFFFF" d="M193.823,212.98v-0.956c-0.631,0.746-1.721,1.186-2.925,1.186c-1.473,0-3.212-0.994-3.212-3.06
		c0-2.16,1.739-2.982,3.212-2.982c1.224,0,2.313,0.401,2.925,1.128v-1.242c0-0.938-0.803-1.549-2.026-1.549
		c-0.994,0-1.912,0.363-2.696,1.09l-0.917-1.625c1.128-0.994,2.581-1.453,4.034-1.453c2.103,0,4.033,0.841,4.033,3.499v5.965
		H193.823z M193.823,210.763v-1.147c-0.401-0.535-1.166-0.803-1.95-0.803c-0.956,0-1.739,0.497-1.739,1.396
		c0,0.86,0.783,1.357,1.739,1.357C192.657,211.565,193.422,211.298,193.823,210.763z"/>
	<path fill="#FFFFFF" d="M198.703,214.414c0.21,0.096,0.535,0.153,0.765,0.153c0.631,0,1.051-0.172,1.28-0.669l0.345-0.784
		l-3.747-9.368h2.6l2.409,6.424l2.409-6.424h2.619l-4.34,10.745c-0.688,1.739-1.912,2.198-3.499,2.236
		c-0.287,0-0.898-0.057-1.204-0.134L198.703,214.414z"/>
	<path fill="#FFFFFF" d="M208.188,211.643c0-0.842,0.688-1.549,1.529-1.549s1.549,0.707,1.549,1.549
		c0,0.821-0.708,1.529-1.549,1.529S208.188,212.464,208.188,211.643z M208.647,208.832l-0.402-8.604h2.926l-0.383,8.604H208.647z"/>
</g>
<g>
	<path fill="#137CC1" d="M250.815,43.98c0-0.564-0.4-0.855-0.965-0.855c-1.509,0-2.347,1.472-2.62,2.674
		C248.286,45.817,250.815,45.544,250.815,43.98L250.815,43.98z"/>
	<path fill="#137CC1" d="M248.903,49.584c1.056,0,1.857-0.492,2.348-0.801l0.655,1.419c-0.455,0.346-1.729,1.055-3.53,1.055
		c-2.492,0-3.529-1.546-3.529-3.656c0-3.147,2.02-6.04,5.33-6.04c1.656,0,2.621,0.855,2.621,2.128c0,3.184-3.821,3.566-5.768,3.584
		C246.939,48.437,247.357,49.584,248.903,49.584L248.903,49.584z M243.891,44.835l-1.092,6.149h-2.165l1.02-5.767
		c0.055-0.273,0.091-0.545,0.091-0.782c0-0.691-0.218-1.2-1.036-1.2c-1.074,0-1.892,0.909-2.056,1.855l-1.038,5.894h-2.165
		l1.02-5.767c0.055-0.273,0.091-0.545,0.091-0.8c0-0.654-0.182-1.182-1.056-1.182c-1.091,0-1.891,0.909-2.056,1.891l-1.018,5.858
		h-2.165l1.327-7.568l0.129-1.583h1.801l-0.038,1.127c0.783-0.89,1.766-1.4,2.912-1.4c1.145,0,1.947,0.436,2.256,1.455
		c0.729-0.945,1.764-1.455,2.929-1.455c1.545,0,2.401,0.764,2.401,2.292C243.982,44.144,243.946,44.508,243.891,44.835
		L243.891,44.835z M251.687,28.66c-5.179-3.097-8.103-6.379-9.135-7.812c0,0-0.365-0.567-0.782-0.567
		c-0.414,0-0.752,0.568-0.752,0.568c-1.018,1.433-4.009,4.732-9.215,7.841c-5.887,3.537-10.263,9.545-10.263,16.915
		c0,11.172,9.057,20.229,20.228,20.229c11.174,0,20.23-9.056,20.23-20.229C261.999,38.216,257.604,32.192,251.687,28.66
		L251.687,28.66z"/>
	<path fill="#4D4D4F" d="M56.959,37.955c-0.841-0.374-2.057-0.748-3.506-0.748c-4.442,0-5.937,4.208-5.937,8.789
		c0,4.255,1.029,7.948,4.815,7.948c2.852,0,4.629-2.057,4.629-3.88V37.955L56.959,37.955z M56.959,33.701v-8.836h5.516v27.91
		l0.421,4.581h-4.768l-0.374-2.525l-0.187-0.047c-1.449,2.151-3.786,3.273-6.358,3.273C43.916,58.057,42,52.354,42,46.51
		c0-7.994,4.114-13.37,11.313-13.37C54.809,33.14,55.884,33.374,56.959,33.701L56.959,33.701z"/>
	<path fill="#4D4D4F" d="M72.81,57.356h-5.563V37.628l-0.421-3.787h4.582l0.561,3.413c1.029-2.665,3.319-4.114,5.657-4.114
		c1.403,0,2.712,0.327,3.74,0.935l-0.982,4.722c-1.029-0.561-2.104-0.935-3.319-0.935c-2.525,0-4.161,2.01-4.254,4.722V57.356
		L72.81,57.356z"/>
	<path fill="#4D4D4F" d="M102.45,33.841v19.588l0.374,3.927h-4.769l-0.327-2.758h-0.187c-1.589,2.337-4.114,3.412-6.778,3.412
		c-5.142,0-7.713-2.712-7.713-8.227V33.841h5.563v14.913c0,2.852,0.514,4.955,3.646,4.955c2.525,0,4.628-2.244,4.628-4.488V33.841
		H102.45L102.45,33.841z"/>
	<path fill="#4D4D4F" d="M115.093,37.581c-0.841,0-1.776,0.093-2.758,0.327v14.398c1.216,0.795,2.758,1.169,3.974,1.169
		c3.974,0,5.189-3.927,5.189-7.667C121.497,40.339,119.394,37.581,115.093,37.581L115.093,37.581z M112.335,67.173h-5.563V34.683
		c3.506-1.075,6.966-1.542,9.349-1.542c7.48,0,10.986,4.161,10.986,12.248c0,8.228-3.787,12.669-9.911,12.669
		c-1.823,0-3.646-0.608-4.862-1.356V67.173L112.335,67.173z"/>
	<path fill="#4D4D4F" d="M144.585,37.815c-0.703-0.327-2.057-0.608-3.508-0.608c-4.44,0-5.937,4.161-5.937,9.21
		c0,3.88,0.935,7.573,4.863,7.573c2.897,0,4.582-2.057,4.582-4.067V37.815L144.585,37.815z M150.099,52.868l0.421,4.488h-4.814
		l-0.327-2.478l-0.188-0.047c-1.448,2.104-3.833,3.132-6.404,3.132c-6.591,0-9.162-4.675-9.162-11.36
		c0-8.228,4.113-13.464,12.154-13.464c1.543,0,4.955,0.374,8.321,1.636V52.868L150.099,52.868z"/>
	<path fill="#4D4D4F" d="M167.899,57.356V33.841h5.563v23.515H167.899L167.899,57.356z M170.658,23.978
		c1.915,0,3.224,1.402,3.224,3.132c0,1.776-1.355,3.085-3.224,3.085c-1.966,0-3.226-1.309-3.226-3.085
		C167.432,25.38,168.741,23.978,170.658,23.978L170.658,23.978z"/>
	<path fill="#4D4D4F" d="M194.394,52.997h-11.198v-0.098c1.205-1.256,4.418-5.503,5.581-6.903l7.005-8.532v-3.622h-18.177v4.362
		h11.13V38.3c-1.255,1.352-2.468,2.882-3.673,4.33l-8.834,11.298v3.428h21.301C195.665,55.871,195.15,54.844,194.394,52.997
		L194.394,52.997z"/>
	<path fill="#4D4D4F" d="M165.646,52.916c-0.982,0.42-2.009,0.747-2.943,0.747c-1.918,0-2.526-1.075-2.526-3.974V24.912h-5.563
		v25.946c0,3.506,0.375,7.2,6.687,7.2c1.471,0,3.087-0.327,4.345-0.814V52.916L165.646,52.916z"/>
	<path fill="#4D4D4F" d="M207.197,37.114c1.684,0,2.805,1.029,2.805,2.758c0,3.6-5.935,4.395-8.461,4.348
		C201.682,40.76,203.458,37.114,207.197,37.114L207.197,37.114z M213.606,51.908l-0.097-0.162c-1.122,0.795-3.131,2.057-5.891,2.057
		c-3.972,0-5.701-2.945-5.89-5.984c4.303-0.046,13.232-0.982,13.232-8.181c0-4.161-2.852-6.498-7.435-6.498
		c-7.433,0-11.404,6.077-11.404,12.949c0,7.012,3.178,11.968,10.893,11.968c4.299,0,7.317-1.836,8.472-2.809
		C214.758,54.2,214.124,53.089,213.606,51.908L213.606,51.908z"/>
	<path fill="#137CC1" d="M129.462,72.675c0-0.585-0.409-1.075-1.193-1.075h-2.245v2.162h2.245
		C129.017,73.762,129.462,73.354,129.462,72.675L129.462,72.675z M129.31,69.39c0-0.585-0.398-1.017-1.099-1.017h-2.187v2.022h2.187
		C128.912,70.395,129.31,69.975,129.31,69.39L129.31,69.39z M124.656,74.967v-7.799h3.835c1.426,0,2.221,0.889,2.221,1.987
		c0,0.983-0.632,1.637-1.356,1.79c0.83,0.128,1.508,0.959,1.508,1.918c0,1.204-0.807,2.104-2.268,2.104H124.656L124.656,74.967z"/>
	<polygon fill="#137CC1" points="134.381,74.967 134.381,71.728 131.353,67.168 132.92,67.168 135.071,70.513 137.2,67.168 
		138.766,67.168 135.75,71.728 135.75,74.967 134.381,74.967 	"/>
	<polygon fill="#137CC1" points="143.206,74.967 143.206,67.168 144.574,67.168 144.574,73.762 148.011,73.762 148.011,74.967 
		143.206,74.967 	"/>
	<path fill="#137CC1" d="M149.25,71.891v-4.723h1.379v4.678c0,1.239,0.69,2.046,2,2.046c1.298,0,1.987-0.807,1.987-2.046v-4.678
		h1.38v4.712c0,1.942-1.111,3.228-3.367,3.228C150.359,75.108,149.25,73.809,149.25,71.891L149.25,71.891z"/>
	<polygon fill="#137CC1" points="157.945,74.967 157.945,67.168 159.312,67.168 159.312,73.762 162.749,73.762 162.749,74.967 
		157.945,74.967 	"/>
	<polygon fill="#137CC1" points="164.282,74.967 164.282,67.168 165.649,67.168 165.649,73.762 169.086,73.762 169.086,74.967 
		164.282,74.967 	"/>
	<path fill="#137CC1" d="M173.714,68.548l-1.403,3.717h2.807L173.714,68.548L173.714,68.548z M176.076,74.967l-0.573-1.497h-3.578
		l-0.573,1.497h-1.555l3.065-7.799h1.705l3.065,7.799H176.076L176.076,74.967z"/>
	<path fill="#137CC1" d="M183.579,72.675c0-0.585-0.409-1.075-1.192-1.075h-2.246v2.162h2.246
		C183.135,73.762,183.579,73.354,183.579,72.675L183.579,72.675z M183.427,69.39c0-0.585-0.397-1.017-1.099-1.017h-2.187v2.022
		h2.187C183.03,70.395,183.427,69.975,183.427,69.39L183.427,69.39z M178.774,74.967v-7.799h3.835c1.426,0,2.222,0.889,2.222,1.987
		c0,0.983-0.632,1.637-1.357,1.79c0.83,0.128,1.509,0.959,1.509,1.918c0,1.204-0.807,2.104-2.269,2.104H178.774L178.774,74.967z"/>
	<path fill="#137CC1" d="M192.861,71.073c0-1.613-1.017-2.818-2.583-2.818c-1.579,0-2.584,1.205-2.584,2.818
		c0,1.602,1.005,2.818,2.584,2.818C191.844,73.891,192.861,72.675,192.861,71.073L192.861,71.073z M186.291,71.073
		c0-2.326,1.648-4.033,3.987-4.033c2.338,0,3.986,1.707,3.986,4.033c0,2.327-1.648,4.035-3.986,4.035
		C187.939,75.108,186.291,73.4,186.291,71.073L186.291,71.073z"/>
	<polygon fill="#137CC1" points="197.442,74.967 197.442,68.373 195.079,68.373 195.079,67.168 201.172,67.168 201.172,68.373 
		198.809,68.373 198.809,74.967 197.442,74.967 	"/>
</g>
<rect x="0.5" y="0.5" fill="none" stroke="#666666" stroke-miterlimit="10" width="299" height="249"/>
</svg>
